PathFileType	4	(X/Y/Z)	Patient4_TMGait_0pt8_01_right_32.trc.trc
DataRate	CameraRate	NumFrames	NumMarkers	Units	OrigDataRate	OrigDataStartFrame	OrigNumFrames
86.956521739130	86.956521739130	5	33	mm	86.956521739130	36	       141
Frame#	Time	Sacral			L.Shoulder			Chest			R.Shoulder			Neck			R.ASIS			L.ASIS			R.Thigh.Superior			R.Thigh.Lateral			R.Thigh.Inferior			R.Patella			L.Thigh.Superior			L.Thigh.Lateral			L.Thigh.Inferior			L.Patella			L.Shank.Superior			L.Shank.Lateral			L.Shank.Inferior			R.Shank.Superior			R.Shank.Lateral			R.Shank.Inferior			R.Heel			R.Midfoot.Superior			R.Midfoot.Lateral			R.Toe			L.Heel			L.Midfoot.Lateral			L.Midfoot.Superior			L.Toe			L.Elbow			L.Wrist			R.Elbow			R.Wrist			
		X1	Y1	Z1	X2	Y2	Z2	X3	Y3	Z3	X4	Y4	Z4	X5	Y5	Z5	X6	Y6	Z6	X7	Y7	Z7	X8	Y8	Z8	X9	Y9	Z9	X10	Y10	Z10	X11	Y11	Z11	X12	Y12	Z12	X13	Y13	Z13	X14	Y14	Z14	X15	Y15	Z15	X16	Y16	Z16	X17	Y17	Z17	X18	Y18	Z18	X19	Y19	Z19	X20	Y20	Z20	X21	Y21	Z21	X22	Y22	Z22	X23	Y23	Z23	X24	Y24	Z24	X25	Y25	Z25	X26	Y26	Z26	X27	Y27	Z27	X28	Y28	Z28	X29	Y29	Z29	X30	Y30	Z30	X31	Y31	Z31	X32	Y32	Z32	X33	Y33	Z33	

36	36.202500000000	845.360581947945	994.759445794744	481.157934889047	1043.313370911314	1426.562820712728	316.792850749663	1133.465312298332	1350.154647264413	482.862035748908	1037.992962879720	1421.013734312813	651.811823489135	1019.844449733173	1483.230658437132	472.890261777512	1070.247041268364	935.614479200992	609.404857320894	1061.570449479816	946.720340815436	334.293878467968	1139.782775279464	752.361960919452	582.716009579172	1071.863287386915	632.790635931181	639.086877760533	1161.513286859189	592.746012762555	564.855212020518	1174.564053643650	503.956983832286	572.097547520785	1082.938561831171	722.278131847299	352.616606232358	981.704965861910	616.201901748484	287.381370871967	1062.023680181682	523.060559554344	340.957810183634	1045.490462553783	438.661196915921	338.002423585178	971.266117278170	387.036738485683	335.910504358599	825.645556123823	355.993972149404	293.810210124798	804.345910057959	230.424845929686	353.356257071399	1154.467528771456	412.598545708323	577.103709826880	1090.066502572857	301.157824782072	633.705370881711	1147.634701232312	212.122417218103	573.141959821579	1030.082989841181	42.042448762978	534.690252250413	1199.946759697364	99.028127380339	572.824904594348	1112.931296449308	36.922806920093	610.563641164636	1320.421735949684	49.794896293575	600.287823401089	609.907289084241	174.941012138268	401.162711902997	662.113623440182	129.605022936955	317.767359791304	768.091054057600	135.686984204444	334.462971806174	841.490047411244	33.186902397157	301.556576381146	1084.147672960240	1090.897910213187	173.180948490474	1334.317134745415	1037.085948976412	202.024964095815	905.827330204377	1093.833490380961	742.902082798551	884.908847760310	835.570907921403	761.322435396602	
37	36.214000000000	845.062312366025	996.680966365208	484.684792809905	1041.173204776514	1428.829578493269	319.264279728939	1133.235726121695	1351.985676346843	484.121244063084	1039.730640070619	1422.417607252119	654.208278400701	1019.623145097789	1485.096639433057	475.732062971846	1071.014302016569	937.491751443259	610.599628402976	1059.955400318316	948.796592603493	335.730092656455	1137.632771536323	751.639116644609	585.420519261794	1067.435539636681	633.285291326232	640.719815503253	1156.664414818939	592.036094521877	566.526656986216	1168.298492261095	503.346338686294	573.288873684428	1087.784645934151	726.218437308877	353.435087751700	990.817648498718	617.267151998243	287.840081993411	1074.756057436762	526.176158683763	340.589149620181	1059.773059939735	440.506028987602	337.069824958288	983.825223899833	388.859287166555	335.663301867704	836.783982569707	362.550902563375	294.676751924107	811.972158837191	237.677129279408	354.284190581368	1147.400824679680	412.357465541517	578.375307208964	1082.029312177056	301.328898673824	634.629442068077	1139.103416682351	212.010179480598	573.936777198090	1020.914696571305	41.967052721517	534.986355016183	1190.630693568564	99.074685614424	573.138801578379	1103.725904242843	36.916794408684	610.846369230272	1311.144676373515	50.143270261747	600.644706160991	615.953811543308	190.305186294365	403.396822130439	665.658053105858	142.917033618130	319.416180248563	772.315923015115	143.539957609650	335.559611812849	840.083698278551	34.939495235818	301.489758608958	1076.013968430610	1090.827343775906	178.213311520181	1323.349571454776	1021.480927660260	204.273222854362	915.195925925627	1091.829507539692	747.110026991396	906.593944052249	832.637094565816	764.984041020156	
38	36.225500000000	844.624007542750	998.569288411390	488.160770303040	1038.593394292326	1430.959689352124	321.590430396321	1132.802195071768	1353.768111442360	485.101412356182	1041.467825002671	1423.686501905428	656.468708925178	1019.220155580692	1486.853487570376	478.484289546089	1071.623457045984	939.223710604428	611.601465781702	1058.208422881040	950.727960203378	336.936655446794	1135.029642663721	750.761540978265	587.946170932428	1062.671698484732	633.683365094331	642.297922126672	1151.337348298437	591.235919701787	568.026995279124	1161.521550239314	502.704820964396	574.397130728024	1092.439863541608	730.472157342211	354.063725201409	999.743451046854	618.890684258314	288.018044453163	1087.140131648469	529.989933155385	339.983409559627	1073.935801595466	443.166822291510	335.931672035869	996.655438625640	391.281506939139	335.153880785861	848.450711032688	368.947990679104	295.372768116917	820.801035710280	244.716273828403	355.090406946924	1139.953431489465	412.091872834944	579.563598843068	1073.739707130389	301.422563339525	635.475719280044	1130.408871543730	211.886552227819	574.672588772957	1011.696116112847	41.909517597935	535.239560891646	1181.325027521479	99.064802031810	573.405116961694	1094.474784265727	36.868049326120	611.065724916057	1301.853341991121	50.330415078398	600.913726194227	623.806994953993	203.998347174251	405.708392058521	671.239666583446	155.109570545147	321.095872104704	778.316990950945	151.288175459615	336.571007983434	841.335303540343	37.539945376724	301.227309586309	1067.764739284192	1090.772065307967	183.159550124694	1311.092916070849	1005.345742769285	206.432224588159	925.068117617406	1089.802952559683	751.286643883510	929.436697694102	830.211256588091	768.442044061901	
39	36.237000000000	844.062049098716	1000.395471821512	491.541900115620	1035.679909937637	1432.908956241590	323.748139213958	1132.196726077485	1355.457859416330	485.819389184231	1043.195136870653	1424.823365644916	658.566831661420	1018.674843350738	1488.487192716113	481.098153544520	1072.058101765261	940.808253793663	612.479067187572	1056.373566108875	952.482287593938	337.962976814688	1132.078861694657	749.856314062836	590.181538260064	1057.766195638879	634.036628544315	643.826036844525	1145.705707215081	590.407235888719	569.356086597213	1154.418260080332	502.070202492001	575.445697854853	1096.825756817518	735.010446290127	354.554812204610	1008.362060907530	621.072347756215	287.930903572206	1099.045444738630	534.482874095079	339.134689310839	1087.840712177452	446.633519775974	334.539176530300	1009.641983804809	394.276518173911	334.345335065544	860.508005357357	375.002571782031	295.849506201771	830.837362842093	251.272861672634	355.680311430389	1132.290190365738	411.822092462783	580.668874290141	1065.342348837977	301.477413698696	636.271930152650	1121.635335602917	211.762038746512	575.350516072049	1002.433901254774	41.882134114550	535.465155037550	1172.045671393996	99.016327936472	573.636468911484	1085.189036975941	36.794956153827	611.236424058146	1292.556939403846	50.366707599075	601.098925491084	633.397846143995	215.477416997637	407.946843682843	678.894231520012	165.640794636101	322.680466619105	786.198631509590	158.547369005440	337.377772564073	845.552466265111	40.838347150851	300.725975012428	1059.404229557905	1090.669730647442	187.986638389812	1297.445613570179	988.870240678402	208.493442418531	935.483596886058	1087.767000834126	755.365990505956	953.324043105746	828.411323940709	771.655192539501	
40	36.248500000000	843.395538263838	1002.130085690019	494.797701262313	1032.551002300441	1434.646918595196	325.720510058649	1131.453600166203	1357.019959323439	486.303618449396	1044.896455183210	1425.847833796966	660.477925611962	1018.024410347401	1489.990611217496	483.523705573951	1072.309498062257	942.249124861904	613.303285126976	1054.491019907396	954.050021058977	338.878356258435	1128.890260909865	749.017355663646	592.056317189726	1052.860329564078	634.378383281428	645.299705443509	1139.915718326810	589.591134816309	570.523744162413	1147.152352360935	501.466391402256	576.439799154248	1100.889355500393	739.798785581964	354.962019944373	1016.592465114279	623.782127540118	287.605887536140	1110.393463704292	539.611726044605	338.050462679820	1101.392999990452	450.873982261101	332.872748326068	1022.705594746811	397.793273262349	333.226850075749	872.856714964324	380.536268103426	296.064027859481	842.083365616276	257.101512976858	355.972729873287	1124.549215128001	411.560756663344	581.689840593848	1056.946402453066	301.523582302731	637.029915528668	1112.850729379047	211.643472281032	575.971354984896	993.139745897464	41.888957298477	535.673950710868	1162.802419267699	98.954194636033	573.848762407420	1075.882362197751	36.714931914751	611.371868602895	1283.262817650943	50.282943025096	601.213568562335	644.643161215173	224.337002926488	409.956789959192	688.620336110271	174.083930799419	324.036320266037	796.031864390670	164.956192157819	337.871985990716	852.929909760187	44.571954484047	299.937361116302	1050.917886573009	1090.480271953660	192.673371024175	1282.318628278090	972.249805496048	210.446936192637	946.467433844233	1085.762156750316	759.284179714474	978.142748143419	827.365173779918	774.575790292723	
